<svg width="114" height="109" viewBox="0 0 114 109" fill="none" xmlns="http://www.w3.org/2000/svg">
<path d="M64.7409 22.5898C64.7409 19.0762 61.8732 16.2155 58.3509 16.2155C54.8286 16.2155 51.9609 19.0762 51.9609 22.5898C51.9609 26.1034 54.8286 28.9641 58.3509 28.9641C61.8732 28.9641 64.7409 26.1034 64.7409 22.5898Z" fill="url(#paint0_linear_415_2564)"/>
<path d="M108.692 62.5767C106.338 62.3124 104.125 63.7271 103.377 65.9659H92.857V53.9014H103.985C105.091 53.9014 105.98 52.9997 105.98 51.9114V42.5055C108.146 41.5571 109.362 39.2251 108.879 36.9086C108.396 34.5921 106.354 32.9285 103.985 32.9285C101.616 32.9285 99.5743 34.5921 99.0911 36.9086C98.608 39.2251 99.8236 41.5571 101.99 42.5055V49.9214H92.857V15.6714C92.857 7.02724 85.8125 0 77.1471 0H36.7968C28.1314 0 21.0869 7.02724 21.0869 15.6714V25.3261C21.0869 28.0468 23.3 30.2545 26.0274 30.2545C28.7548 30.2545 30.9679 28.0468 30.9679 25.3261V15.6714C30.9679 12.4687 33.5863 9.8568 36.7968 9.8568H77.1626C80.3732 9.8568 82.9915 12.4687 82.9915 15.6714V78.6678C82.9915 81.8705 80.3732 84.4824 77.1626 84.4824H36.7968C33.5863 84.4824 30.9679 81.8705 30.9679 78.6678V44.993H60.3461C63.5567 44.993 66.175 47.6049 66.175 50.8076V62.1103C66.175 65.3129 63.5567 67.9248 60.3461 67.9248H53.7224C50.5118 67.9248 47.8935 65.3129 47.8935 62.1103V53.7304C47.8935 51.0097 45.6804 48.802 42.953 48.802C40.2256 48.802 38.0125 51.0097 38.0125 53.7304V62.1103C38.0125 70.7544 45.057 77.7816 53.7224 77.7816H60.3461C69.0116 77.7816 76.0561 70.7544 76.0561 62.1103V50.8076C76.0561 42.1635 69.0116 35.1362 60.3461 35.1362H21.1025V49.9059H11.1435V42.4899C13.3098 41.5416 14.5255 39.2095 14.0423 36.893C13.5592 34.5765 11.5175 32.913 9.14857 32.913C6.77961 32.913 4.73794 34.5765 4.25479 36.893C3.77165 39.2095 4.9873 41.5416 7.15365 42.4899V51.8959C7.15365 52.9997 8.0576 53.8859 9.14857 53.8859H21.1025V65.9504H9.75639C9.0083 63.7116 6.79519 62.2968 4.44182 62.5611C2.08844 62.8254 0.249381 64.7066 0.0156022 67.0542C-0.202591 69.4018 1.26242 71.5939 3.52229 72.2935C5.78215 72.9931 8.22903 72.0137 9.38234 69.9459H21.1025V78.6523C21.1025 87.2964 28.147 94.3236 36.8124 94.3236H42.688L42.766 101.864H31.3576C30.4069 99.7029 28.0691 98.4902 25.7469 98.9722C23.4247 99.4541 21.757 101.491 21.757 103.854C21.757 106.217 23.4247 108.254 25.7469 108.736C28.0691 109.218 30.4069 108.005 31.3576 105.844H44.7921C45.322 105.844 45.8363 105.626 46.2103 105.253C46.5844 104.88 46.8026 104.367 46.787 103.823L46.6779 94.3081H68.1232L68.0141 103.963C68.0141 104.491 68.2167 105.004 68.5908 105.393C68.9648 105.766 69.4791 105.984 70.009 105.984H83.4435C84.3942 108.145 86.732 109.358 89.0542 108.876C91.3764 108.394 93.044 106.357 93.044 103.994C93.044 101.631 91.3764 99.5941 89.0542 99.1121C86.732 98.6301 84.3942 99.8428 83.4435 102.004H72.0351L72.113 94.3236H77.1315C85.7969 94.3236 92.8414 87.2964 92.8414 78.6523V69.9459H103.736C104.889 72.0137 107.32 72.9931 109.596 72.2935C111.855 71.5939 113.32 69.4173 113.102 67.0542C112.884 64.7066 111.029 62.8254 108.676 62.5611L108.692 62.5767Z" fill="url(#paint1_linear_415_2564)"/>
<defs>
<linearGradient id="paint0_linear_415_2564" x1="25.0764" y1="-22.3877" x2="120.139" y2="106.751" gradientUnits="userSpaceOnUse">
<stop stop-color="#00A19A"/>
<stop offset="1" stop-color="#2FAC66"/>
</linearGradient>
<linearGradient id="paint1_linear_415_2564" x1="7.43418" y1="-9.39038" x2="102.497" y2="119.733" gradientUnits="userSpaceOnUse">
<stop stop-color="#00A19A"/>
<stop offset="1" stop-color="#2FAC66"/>
</linearGradient>
</defs>
</svg>
